<?xml version="1.0" encoding="utf-8"?>
<!-- Generator: Adobe Illustrator 18.0.0, SVG Export Plug-In . SVG Version: 6.00 Build 0)  -->
<!DOCTYPE svg PUBLIC "-//W3C//DTD SVG 1.1//EN" "http://www.w3.org/Graphics/SVG/1.1/DTD/svg11.dtd" [
	<!ENTITY ns_flows "http://ns.adobe.com/Flows/1.0/">
	<!ENTITY ns_extend "http://ns.adobe.com/Extensibility/1.0/">
	<!ENTITY ns_ai "http://ns.adobe.com/AdobeIllustrator/10.0/">
	<!ENTITY ns_graphs "http://ns.adobe.com/Graphs/1.0/">
	<!ENTITY ns_vars "http://ns.adobe.com/Variables/1.0/">
	<!ENTITY ns_imrep "http://ns.adobe.com/ImageReplacement/1.0/">
	<!ENTITY ns_sfw "http://ns.adobe.com/SaveForWeb/1.0/">
	<!ENTITY ns_custom "http://ns.adobe.com/GenericCustomNamespace/1.0/">
	<!ENTITY ns_adobe_xpath "http://ns.adobe.com/XPath/1.0/">
]>
<svg version="1.1" id="Layer_1" xmlns:x="&ns_extend;" xmlns:i="&ns_ai;" xmlns:graph="&ns_graphs;"
	 xmlns="http://www.w3.org/2000/svg" xmlns:xlink="http://www.w3.org/1999/xlink" xmlns:a="http://ns.adobe.com/AdobeSVGViewerExtensions/3.0/"
	 x="0px" y="0px" width="28.3px" height="28.3px" viewBox="0 0 28.3 28.3" enable-background="new 0 0 28.3 28.3"
	 xml:space="preserve">
<metadata>
	<sfw  xmlns="&ns_sfw;">
		<slices></slices>
		<sliceSourceBounds  height="22.1" width="12.3" y="-25.1" x="8" bottomLeftOrigin="true"></sliceSourceBounds>
		<optimizationSettings>
			<targetSettings  fileFormat="PNG24Format" targetSettingsID="0">
				<PNG24Format  transparency="true" noMatteColor="false" matteColor="#FFFFFF" interlaced="false" filtered="false">
					</PNG24Format>
			</targetSettings>
		</optimizationSettings>
	</sfw>
</metadata>
<g>
	<g>
		<path fill="#6D4C41" d="M19.7,3l-2.6,0C13.8,3,12,5.2,12,8.5V11H8.7C8.5,11,8,11.3,8,11.5v3.7C8,15.5,8.5,16,8.7,16H12v9
			c0,0.3-0.1,0,0.1,0h3.8c0.3,0,1.1,0.3,1.1,0v-9h2.8c0.3,0,0.5-0.4,0.5-0.6l0-3.8c0-0.1,0-0.3-0.1-0.4C20,11.1,19.9,11,19.8,11H17
			V8.9c0-1-0.4-1.9,1-1.9h2C20.2,7,20,7.2,20,6.9V3.5C20,3.2,20,3,19.7,3z"/>
	</g>
</g>
</svg>
