<?xml version="1.0" encoding="utf-8"?>
<!-- Generator: Adobe Illustrator 18.0.0, SVG Export Plug-In . SVG Version: 6.00 Build 0)  -->
<!DOCTYPE svg PUBLIC "-//W3C//DTD SVG 1.1//EN" "http://www.w3.org/Graphics/SVG/1.1/DTD/svg11.dtd" [
	<!ENTITY ns_flows "http://ns.adobe.com/Flows/1.0/">
	<!ENTITY ns_extend "http://ns.adobe.com/Extensibility/1.0/">
	<!ENTITY ns_ai "http://ns.adobe.com/AdobeIllustrator/10.0/">
	<!ENTITY ns_graphs "http://ns.adobe.com/Graphs/1.0/">
	<!ENTITY ns_vars "http://ns.adobe.com/Variables/1.0/">
	<!ENTITY ns_imrep "http://ns.adobe.com/ImageReplacement/1.0/">
	<!ENTITY ns_sfw "http://ns.adobe.com/SaveForWeb/1.0/">
	<!ENTITY ns_custom "http://ns.adobe.com/GenericCustomNamespace/1.0/">
	<!ENTITY ns_adobe_xpath "http://ns.adobe.com/XPath/1.0/">
]>
<svg version="1.1" id="Слой_1" xmlns:x="&ns_extend;" xmlns:i="&ns_ai;" xmlns:graph="&ns_graphs;"
	 xmlns="http://www.w3.org/2000/svg" xmlns:xlink="http://www.w3.org/1999/xlink" xmlns:a="http://ns.adobe.com/AdobeSVGViewerExtensions/3.0/"
	 x="0px" y="0px" viewBox="0 0 34 45" enable-background="new 0 0 34 45" xml:space="preserve" width="30px" height="30px">
<metadata>
	<sfw  xmlns="&ns_sfw;">
		<slices></slices>
		<sliceSourceBounds  width="34" height="45" y="-22.5" x="-17" bottomLeftOrigin="true"></sliceSourceBounds>
	</sfw>
</metadata>
<g>
	<path fill="#5D4037" d="M17,12.4c-2.5,0-4.6,2.1-4.6,4.7s2.1,4.7,4.6,4.7s4.6-2.1,4.6-4.7S19.5,12.4,17,12.4z"/>
	<path fill="#FFA726" d="M17,0C7.6,0,0,7.7,0,17.3c0,4,1.4,7.8,3.7,10.7L17,45l13.3-17C32.6,25,34,21.3,34,17.3C34,7.7,26.4,0,17,0z
		 M17,24.8c-4.2,0-7.7-3.5-7.7-7.8s3.4-7.8,7.7-7.8s7.7,3.5,7.7,7.8S21.2,24.8,17,24.8z"/>
</g>
</svg>
