<?xml version="1.0" encoding="utf-8"?>
<!-- Generator: Adobe Illustrator 18.0.0, SVG Export Plug-In . SVG Version: 6.00 Build 0)  -->
<!DOCTYPE svg PUBLIC "-//W3C//DTD SVG 1.1//EN" "http://www.w3.org/Graphics/SVG/1.1/DTD/svg11.dtd" [
	<!ENTITY ns_flows "http://ns.adobe.com/Flows/1.0/">
	<!ENTITY ns_extend "http://ns.adobe.com/Extensibility/1.0/">
	<!ENTITY ns_ai "http://ns.adobe.com/AdobeIllustrator/10.0/">
	<!ENTITY ns_graphs "http://ns.adobe.com/Graphs/1.0/">
	<!ENTITY ns_vars "http://ns.adobe.com/Variables/1.0/">
	<!ENTITY ns_imrep "http://ns.adobe.com/ImageReplacement/1.0/">
	<!ENTITY ns_sfw "http://ns.adobe.com/SaveForWeb/1.0/">
	<!ENTITY ns_custom "http://ns.adobe.com/GenericCustomNamespace/1.0/">
	<!ENTITY ns_adobe_xpath "http://ns.adobe.com/XPath/1.0/">
]>
<svg version="1.1" id="Layer_1" xmlns:x="&ns_extend;" xmlns:i="&ns_ai;" xmlns:graph="&ns_graphs;"
	 xmlns="http://www.w3.org/2000/svg" xmlns:xlink="http://www.w3.org/1999/xlink" xmlns:a="http://ns.adobe.com/AdobeSVGViewerExtensions/3.0/"
	 x="0px" y="0px" width="123.3px" height="38.7px" viewBox="0 0 123.3 38.7" enable-background="new 0 0 123.3 38.7"
	 xml:space="preserve">
<metadata>
	<sfw  xmlns="&ns_sfw;">
		<slices></slices>
		<sliceSourceBounds  height="38.7" width="123.3" y="-38.7" x="0" bottomLeftOrigin="true"></sliceSourceBounds>
	</sfw>
</metadata>
<g id="Logo">
	<g>
		<path fill="#FFFFFF" d="M49.4,0l-4.6,11.9v5.5h-6v-5.5L34.4,0h6.3l1.2,6.4h0.2L43.2,0H49.4z"/>
		<path fill="#FFFFFF" d="M54.2,17.7c-2.7,0-4-1.3-4-3.8V4h5.9v8.8c0,0.3,0.1,0.4,0.4,0.4s0.6-0.1,1.1-0.3V4h5.9v13.4h-5.6v-0.7
			h-0.2C56.6,17.3,55.4,17.7,54.2,17.7z"/>
		<path fill="#FFFFFF" d="M82,3.6c2.6,0,3.9,1.3,3.9,3.8v9.9H80V8.7c0-0.3-0.1-0.4-0.3-0.4c-0.3,0-0.7,0.1-1.1,0.3v8.8h-5.9V8.7
			c0-0.3-0.1-0.4-0.4-0.4c-0.3,0-0.7,0.1-1.1,0.3v8.8h-5.8V4h5.3l0.2,0.9C72,4,73.4,3.6,74.8,3.6S77.3,4.1,78,5
			C79.2,4.1,80.6,3.6,82,3.6z"/>
		<path fill="#FFFFFF" d="M104.3,3.6c2.6,0,3.9,1.3,3.9,3.8v9.9h-5.9V8.7c0-0.3-0.1-0.4-0.3-0.4c-0.3,0-0.7,0.1-1.1,0.3v8.8h-5.9
			V8.7c0-0.3-0.1-0.4-0.4-0.4c-0.3,0-0.7,0.1-1.1,0.3v8.8h-5.8V4h5.3L93,4.8c1.3-0.8,2.6-1.2,4.1-1.2s2.5,0.4,3.1,1.3
			C101.5,4.1,102.8,3.6,104.3,3.6z"/>
		<path fill="#FFFFFF" d="M116.2,11.2c0.9-4.7,1.3-7.1,1.3-7.3h5.8l-3.9,13.6c-0.4,1.4-1,2.3-1.8,2.8c-0.8,0.5-2.1,0.8-4,0.8h-3.4
			l-0.6-4h2.2c0.5,0,0.7-0.2,0.7-0.5c0-0.2,0-0.5-0.1-0.8l-3.7-12h6.2l1.2,7.3H116.2z"/>
	</g>
	<g>
		<path fill="#6D4C41" d="M41.9,29c-0.5,0-0.8,0.2-1,0.7c-0.2,0.4-0.2,1.1-0.2,2.1c0,0.9,0.1,1.6,0.2,2c0.1,0.4,0.5,0.6,1.1,0.6
			s1.4-0.1,2.7-0.4l0.6,3.9c-1.6,0.5-3,0.7-4.1,0.7c-2.1,0-3.6-0.6-4.7-1.8c-1.1-1.2-1.6-2.9-1.6-5c0-2.1,0.5-3.9,1.6-5.2
			c1.1-1.3,2.7-2,4.7-2c1.5,0,2.9,0.3,4.3,0.8l-0.6,4.4C43.4,29.3,42.4,29,41.9,29z"/>
		<path fill="#6D4C41" d="M58.2,28.6L58,34.2c0,0.3,0.1,0.4,0.3,0.5c0.2,0.1,0.5,0.1,1,0.1l-0.5,3.7c-1.1,0.1-1.9,0.1-2.3,0.1
			c-1.4,0-2.4-0.4-3-1.1h-0.2c-0.9,0.7-2,1.1-3.4,1.1c-1.4,0-2.4-0.4-3.1-1.1c-0.7-0.7-1-1.7-1-3c0-1.6,0.5-2.7,1.6-3.3
			c1.1-0.6,2.7-1,5-1.2v-0.5c0-0.3-0.2-0.5-0.5-0.5c-1,0-2.6,0.3-4.9,0.9l-0.9-4.4c2.7-0.6,5-1,6.9-1c1.9,0,3.3,0.3,4,1
			C57.8,26.2,58.2,27.2,58.2,28.6z M51.8,35.1c0.5,0,0.8-0.3,0.8-0.8v-1.1c-1,0.1-1.5,0.5-1.5,1.1C51.2,34.8,51.4,35.1,51.8,35.1z"
			/>
		<path fill="#6D4C41" d="M65.3,20.2c1.3,0,2.6,0,4.2,0.1l-0.4,4.4c-1.3-0.1-2-0.2-2.2-0.2c-0.2,0-0.3,0.1-0.3,0.3v0.5H69l-0.3,3.8
			h-2v9.2h-5.9v-9.2h-1.3v-3.8h1.3V24C60.8,21.5,62.3,20.2,65.3,20.2z"/>
		<path fill="#6D4C41" d="M69.2,31.6c0-2.2,0.6-3.9,1.8-5.2c1.2-1.2,2.9-1.8,5.2-1.8c2.3,0,3.9,0.5,4.8,1.4c0.9,0.9,1.4,2.3,1.4,4
			c0,0.7-0.1,1.7-0.2,3.1h-7c0.1,1,0.7,1.5,1.8,1.5c0.5,0,2-0.2,4.3-0.6l0.5,3.8c-2,0.5-3.8,0.8-5.5,0.8c-2.2,0-4-0.6-5.1-1.8
			C69.8,35.6,69.2,33.9,69.2,31.6z M76,29.1c-0.4,0-0.7,0.1-0.8,0.4c-0.1,0.2-0.2,0.6-0.2,1.1h2v-0.4C76.9,29.5,76.6,29.1,76,29.1z"
			/>
	</g>
	<g>
		<g>
			<path fill="#6D4C41" d="M24.6,6.9c1-0.3,1.8-1.1,1.8-2c0-1.1-1.1-2.1-2.5-2.1h-0.7l-1-1.7C21.8,0.5,20.9,0,20.2,0L6.1,0
				C5.4,0,4.6,0.5,4.2,1.1l-1,1.7H2.5C1.1,2.8,0,3.7,0,4.9c0,0.9,0.8,1.7,1.8,2L3.2,18H7c0.6-2.8,3.1-4.9,6.1-4.9s5.5,2.1,6.1,4.9
				h4.1L24.6,6.9z"/>
		</g>
		<g>
			<g>
				<path fill="#FFFFFF" d="M19.2,21.2c-0.8,2.6-3.2,4.5-6,4.5s-5.3-1.9-6-4.5H3.6l1.8,14.7c0.2,1.4,1.5,2.5,2.8,2.5h10.5
					c1.4,0,2.7-1.1,2.8-2.5l1.5-14.7H19.2z"/>
			</g>
		</g>
	</g>
</g>
</svg>
