<?xml version="1.0" encoding="utf-8"?>
<!-- Generator: Adobe Illustrator 18.0.0, SVG Export Plug-In . SVG Version: 6.00 Build 0)  -->
<!DOCTYPE svg PUBLIC "-//W3C//DTD SVG 1.1//EN" "http://www.w3.org/Graphics/SVG/1.1/DTD/svg11.dtd" [
	<!ENTITY ns_flows "http://ns.adobe.com/Flows/1.0/">
	<!ENTITY ns_extend "http://ns.adobe.com/Extensibility/1.0/">
	<!ENTITY ns_ai "http://ns.adobe.com/AdobeIllustrator/10.0/">
	<!ENTITY ns_graphs "http://ns.adobe.com/Graphs/1.0/">
	<!ENTITY ns_vars "http://ns.adobe.com/Variables/1.0/">
	<!ENTITY ns_imrep "http://ns.adobe.com/ImageReplacement/1.0/">
	<!ENTITY ns_sfw "http://ns.adobe.com/SaveForWeb/1.0/">
	<!ENTITY ns_custom "http://ns.adobe.com/GenericCustomNamespace/1.0/">
	<!ENTITY ns_adobe_xpath "http://ns.adobe.com/XPath/1.0/">
]>
<svg version="1.1" id="Слой_1" xmlns:x="&ns_extend;" xmlns:i="&ns_ai;" xmlns:graph="&ns_graphs;"
	 xmlns="http://www.w3.org/2000/svg" xmlns:xlink="http://www.w3.org/1999/xlink" xmlns:a="http://ns.adobe.com/AdobeSVGViewerExtensions/3.0/"
	 x="0px" y="0px" width="30px" height="30px" viewBox="0 0 30 30" enable-background="new 0 0 30 30" xml:space="preserve">
<metadata>
	<sfw  xmlns="&ns_sfw;">
		<slices></slices>
		<sliceSourceBounds  width="25" height="25" y="-12.5" x="-12.5" bottomLeftOrigin="true"></sliceSourceBounds>
	</sfw>
</metadata>
<g>
	<g>
		<g>
			<g>
				<path fill="#FFA726" d="M27.5,22.2c0.1,0.4-0.1,0.8-0.4,1.1l-3.5,3.5c-0.2,0.2-0.4,0.3-0.6,0.4c-0.3,0.1-0.5,0.2-0.8,0.2
					c0,0-0.1,0-0.2,0c-0.1,0-0.2,0-0.3,0c-0.3,0-0.9-0.1-1.6-0.2s-1.7-0.4-2.8-0.8c-1.1-0.4-2.3-1.1-3.7-2c-1.4-0.9-2.8-2.1-4.4-3.7
					C8,19.5,7,18.4,6.2,17.2c-0.8-1.1-1.5-2.1-2-3.1c-0.5-0.9-0.9-1.8-1.1-2.6s-0.4-1.4-0.5-2c-0.1-0.6-0.1-1-0.1-1.3
					c0-0.3,0-0.5,0-0.5c0-0.2,0.1-0.5,0.2-0.8S3,6.6,3.2,6.4l3.5-3.5C7,2.6,7.3,2.5,7.6,2.5c0.2,0,0.4,0.1,0.6,0.2S8.5,3,8.6,3.2
					l2.8,5.4c0.2,0.3,0.2,0.6,0.1,0.9c-0.1,0.3-0.2,0.6-0.4,0.8l-1.3,1.3c0,0-0.1,0.1-0.1,0.2s0,0.1,0,0.2c0.1,0.4,0.2,0.8,0.5,1.3
					c0.2,0.4,0.5,0.9,1,1.5c0.4,0.6,1.1,1.3,1.9,2.1c0.8,0.8,1.5,1.4,2.1,1.9c0.6,0.4,1.1,0.8,1.5,1s0.7,0.3,1,0.4l0.3,0.1
					c0,0,0.1,0,0.2,0c0.1,0,0.1-0.1,0.2-0.1l1.5-1.5c0.3-0.3,0.7-0.4,1.1-0.4c0.3,0,0.5,0.1,0.7,0.2h0l5.1,3
					C27.2,21.6,27.4,21.9,27.5,22.2z"/>
			</g>
		</g>
	</g>
</g>
</svg>
